<?xml version="1.0" encoding="utf-8"?>
<!-- Generator: Adobe Illustrator 18.0.0, SVG Export Plug-In . SVG Version: 6.00 Build 0)  -->
<!DOCTYPE svg PUBLIC "-//W3C//DTD SVG 1.1//EN" "http://www.w3.org/Graphics/SVG/1.1/DTD/svg11.dtd">
<svg version="1.1" id="Calque_1" xmlns="http://www.w3.org/2000/svg" xmlns:xlink="http://www.w3.org/1999/xlink" x="0px" y="0px"
	 viewBox="0 0 595.3 841.9" enable-background="new 0 0 595.3 841.9" xml:space="preserve">
<g>
	<g>
		<linearGradient id="SVGID_1_" gradientUnits="userSpaceOnUse" x1="151.1585" y1="321.07" x2="446.1612" y2="321.07">
			<stop  offset="8.774910e-04" style="stop-color:#1F3C8F"/>
			<stop  offset="1" style="stop-color:#58B999"/>
		</linearGradient>
		<path fill="url(#SVGID_1_)" d="M443.6,337.9c-0.3-17.5-14.5-31.5-32.1-31.5c0,0-82.9,0-82.9,0c-7.8,0-15.2-3.3-20.3-9.1
			c-4.7-5.4-7.1-12.6-7.1-19.7c0,0.2,0,0.4,0,0.6c0.1-8-2.8-15.7-8.7-21.3c-5.6-5.3-13.2-8.2-20.8-8.7c-0.9-0.1-1.7-0.1-2.6-0.1
			l-80.2,0.2c-17.3,0-34.6,13.7-35.2,30.9c0-0.6-0.1,25.6,0,24.9c0.3,17.5,17.7,31.5,35.2,31.5h67.3c0,0,17.4,0,17.4,0
			c7.8,0,15.9,2.6,21.2,8.5c2.4,2.7,3.9,5.7,5.1,9.1c1.7,4.8,0.7,10.2,1.7,15.2c0.8,3.9,2.3,7.6,4.4,10.9
			c4.2,6.6,10.8,11.5,18.4,13.6c2.8,0.8,5.7,1.2,8.7,1.2h78.4c17.3,0,31.4-13.7,32-30.9C443.6,363.6,443.6,337.2,443.6,337.9z
			 M416,364.8c0,0-87.4,0-87.4,0c-7.8,0-15.2-3.4-20.3-9.3c-4.7-5.5-7.1-12.6-7.1-19.8c0,0.2,0,0.4,0,0.6c0.1-7.9-2.8-15.6-8.5-21.1
			c-5.6-5.3-13.1-8.2-20.7-8.7c-0.9-0.1-1.9-0.1-2.8-0.1h-56.3l-0.1,0h-31.5c-10.7,0-24.1-14.5-24.1-14.5s13.4-14.4,24.1-14.4
			c0,0,92.3,0,92.3,0c7.7,0,15.7,2.4,21.1,8.2c2.3,2.4,4.2,5.5,5.1,8.7c0.6,2.1,1.1,4.1,1.2,6.4c0.2,4.7,0.3,9.1,1.9,13.6
			c1.3,3.7,3.3,7.1,5.8,10c5.1,6,12.3,9.9,20.1,11c1.4,0.2,2.9,0.3,4.3,0.3c0,0,2.4,0,2.4,0H416c10.7,0,24.1,14.5,24.1,14.5
			S426.7,364.8,416,364.8z"/>
		<linearGradient id="SVGID_2_" gradientUnits="userSpaceOnUse" x1="150.8354" y1="436.1321" x2="443.2408" y2="436.1321">
			<stop  offset="8.774910e-04" style="stop-color:#1F3C8F"/>
			<stop  offset="1" style="stop-color:#58B999"/>
		</linearGradient>
		<path fill="url(#SVGID_2_)" d="M299.7,455c0-17.4-14.1-31.7-31.4-31.7h-20c-16,0-27.4-12.9-27.4-28.9l-0.2,20.5v5.1
			c0,17.7,14.4,32.3,32.1,32.3h16.8c15.4,0,27.5,10.9,30.2,25.6l0-14.3V455z"/>
		<linearGradient id="SVGID_3_" gradientUnits="userSpaceOnUse" x1="151.1585" y1="394.1479" x2="446.1612" y2="394.1479">
			<stop  offset="8.774910e-04" style="stop-color:#1F3C8F"/>
			<stop  offset="1" style="stop-color:#58B999"/>
		</linearGradient>
		<path fill="url(#SVGID_3_)" d="M367.9,423.2c0,0-39,0-39.1,0c-7.7,0-15.1-3.2-20.2-9c-4.8-5.4-7.2-12.6-7.2-19.9
			c0,0.2,0,0.4,0,0.6c0.1-8-2.8-15.7-8.6-21.3c-5.5-5.4-13.1-8.3-20.7-8.9c-0.9-0.1-1.9-0.1-2.8-0.1h-66.6
			c-16,0-27.4-12.9-27.4-28.9l-0.2,26c0,17.7,14.4,32.3,32.1,32.3c0,0,66.6,0,66.6,0c7.9,0,16,2.6,21.4,8.6c3.6,4,5.7,9.2,6,14.5
			c0.2,2.6,0,5.3,0.4,7.9c0.3,2,0.8,3.9,1.4,5.8c1.3,3.7,3.2,7.1,5.7,10.1c5,6,12.2,10,20,11.2c1.5,0.2,3.1,0.3,4.6,0.3h30.1
			c17.7,0,32.1-14.4,32.1-32.1l0-26C395.5,410.3,383.8,423.2,367.9,423.2z"/>
		<linearGradient id="SVGID_4_" gradientUnits="userSpaceOnUse" x1="151.6472" y1="205.8664" x2="444.2076" y2="205.8664">
			<stop  offset="8.774910e-04" style="stop-color:#1F3C8F"/>
			<stop  offset="1" style="stop-color:#58B999"/>
		</linearGradient>
		<path fill="url(#SVGID_4_)" d="M300.6,187c0,17.4,14.1,31.7,31.4,31.7h20c16,0,27.4,12.9,27.4,28.9l0.2-20.5V222
			c0-17.7-14.4-32.3-32.1-32.3h-16.8c-15.4,0-27.5-10.9-30.2-25.6l0,14.3V187z"/>
		<linearGradient id="SVGID_5_" gradientUnits="userSpaceOnUse" x1="151.1585" y1="249.2184" x2="446.1612" y2="249.2184">
			<stop  offset="8.774910e-04" style="stop-color:#1F3C8F"/>
			<stop  offset="1" style="stop-color:#58B999"/>
		</linearGradient>
		<path fill="url(#SVGID_5_)" d="M333.2,277.6c-8,0-15.8-3.1-21.7-8.5c-6.2-5.7-9.9-13.7-10.4-22.1c0-0.7-0.1-1.5,0-2.2
			c0,0.2,0,0.4,0,0.6c0-8.2-3.3-16.2-10-21.1c-5-3.7-11.2-5.4-17.4-5.4h-44.5c-16,0-27.7,12.9-27.7,28.9l0-26
			c0-17.7,14.4-32.1,32.1-32.1c0,0,35.5,0,35.5,0c7.7,0,15.4,2.3,21.5,7.2c5.9,4.8,9.6,11.6,10.4,19.1c0.3,2.6,0.2,5.2,0.4,7.8
			c0.2,2.5,0.8,4.9,1.8,7.2c1.5,3.7,3.7,7,6.6,9.7c5,4.9,11.8,7.5,18.8,7.5h61.1c17.7,0,32.1,14.5,32.1,32.3l-0.2,26l0.1,2.3
			c0-16-11.5-31.2-27.4-31.2c-7.1,0-11.5-4.2-13.9-7.5c-2.8-3.8-6-7-11.5-8.4c-5.5-1.4-12.9-0.2-12.9,0.7c0,0.9,5.6,2,5.4,7.5
			c-0.2,5.5-4.7,7.7-7.4,7.7C351.4,277.6,333.3,277.6,333.2,277.6z"/>
	</g>
	<g>
		<g>
			<path fill="#1D3D8F" d="M192.6,545.3v42.9c0,8.4,1.4,14.6,4.1,18.7c-4.2,3.7-9.3,5.5-15.2,5.5c-5.6,0-9.5-1.3-11.6-3.8
				c-2.1-2.6-3.2-6.6-3.2-12.1v-45.9c0-5.9-0.7-10-2.2-12.4c-1.4-2.4-4.1-3.5-8.1-3.5c-7,0-13.5,3.2-19.5,9.5v67c-2,0.4-4,0.7-6,0.8
				c-2,0.1-4.2,0.2-6.4,0.2c-2.1,0-4.2-0.1-6.3-0.2c-2.1-0.1-4.2-0.4-6.3-0.8V467.5l1.2-1.4h10c5.1,0,8.7,1.2,10.7,3.5
				c2,2.4,3.1,6.5,3.1,12.4v41.6c9.2-8,18.4-12,27.8-12c9.5,0,16.4,3.1,21,9.2C190.3,526.8,192.6,535,192.6,545.3z"/>
			<path fill="#1D3D8F" d="M298.5,599.2c-0.7,2.4-1.8,4.9-3.5,7.5c-1.7,2.6-3.4,4.6-5.1,5.9c-8.5-1.1-14.8-4.8-18.7-11.2
				c-8.5,8.3-17.9,12.4-28,12.4c-5.1,0-9.6-0.8-13.5-2.5c-3.9-1.6-7.1-3.8-9.6-6.6c-2.6-2.8-4.5-5.9-5.7-9.5
				c-1.2-3.5-1.9-7.2-1.9-11c0-5.5,1-10.3,2.9-14.5c1.9-4.1,4.6-7.6,8.1-10.3c3.5-2.8,7.5-4.9,12.2-6.3c4.7-1.4,9.7-2.2,15.3-2.2
				c7.1,0,12.6,0.2,16.5,0.6v-5.3c0-10-4.9-15-14.6-15c-6.6,0-16.5,2.3-29.9,6.9c-3.7-4.1-5.9-10.2-6.7-18.3
				c13.9-5.9,28.3-8.9,43.1-8.9c9.8,0,17.9,2.8,24.2,8.3c6.3,5.5,9.5,13.9,9.5,25v40.4C293,591.6,294.9,596.5,298.5,599.2z
				 M248.9,594.3c6.6,0,12.7-2.9,18.5-8.7v-17.1c-2.1-0.1-4.1-0.3-6.1-0.4c-2-0.1-3.9-0.2-5.7-0.2c-5.8,0-10.2,1.1-13.2,3.2
				c-3,2.2-4.5,5.7-4.5,10.7c0,3.9,1,7,3,9.2C242.8,593.2,245.5,594.3,248.9,594.3z"/>
			<path fill="#1D3D8F" d="M367.3,553.9c0-7.9-0.9-13.9-2.8-17.9c-1.9-4.1-5.7-6.1-11.4-6.1c-10.4,0-15.7,10.9-15.7,32.7
				c0,10.8,1.5,18.6,4.5,23.4c3,4.9,7.9,7.3,14.5,7.3c3.4,0,7.1-0.7,11-2.2c3.9-1.4,8-3.7,12.2-6.9c2.1,1.3,4.2,3.4,6.2,6.4
				c2,3,3.3,5.7,3.8,8.4c-4.5,4.5-9.9,8-16.4,10.7c-6.5,2.7-13.3,4-20.4,4c-13.8,0-24.2-4.7-31.3-14.1s-10.6-22.3-10.6-38.7
				c0-8.4,1.1-15.8,3.4-22.1c2.3-6.3,5.4-11.6,9.4-15.8c3.9-4.2,8.4-7.4,13.5-9.5c5.1-2.1,10.3-3.2,15.9-3.2c5.8,0,11,0.8,15.7,2.5
				c4.7,1.6,8.6,3.9,11.8,6.7c3.2,2.8,5.7,6.1,7.5,9.9s2.7,7.8,2.7,12c0,4.2-1.1,7.5-3.2,9.8c-2.2,2.3-5.4,3.4-9.7,3.4
				C373.6,554.9,370.2,554.6,367.3,553.9z"/>
			<path fill="#1D3D8F" d="M483.1,570.5h-54.4c0.4,7.2,2.1,12.9,5,17c3,4.1,8.1,6.2,15.5,6.2c7.6,0,16.3-2.2,26.2-6.7
				c3.8,3.9,6.2,9.1,7.3,15.6c-10.5,7.5-23.1,11.2-37.8,11.2c-13.9,0-24.5-4.3-31.6-12.9c-7.2-8.6-10.7-21.4-10.7-38.3
				c0-7.9,0.9-15,2.8-21.4c1.8-6.4,4.5-11.8,8.1-16.3c3.5-4.5,7.9-8,13-10.5c5.1-2.5,11-3.7,17.5-3.7c6.7,0,12.6,1,17.7,3.1
				c5.1,2,9.5,4.9,13,8.7c3.5,3.7,6.2,8.2,8,13.3c1.8,5.1,2.7,10.7,2.7,16.7c0,3.3-0.2,6.4-0.6,9.4
				C484.3,564.6,483.7,567.6,483.1,570.5z M445.1,529.1c-10.2,0-15.8,7.7-16.5,23.2h32.7V550c0-6.3-1.3-11.4-3.9-15.2
				C454.6,531,450.6,529.1,445.1,529.1z"/>
		</g>
		<g>
			<path fill="#1D3D8F" d="M124.8,657.6l0-2.4v-6.9c0.5-0.1,1-0.1,1.8-0.1c0.7,0,1.3,0,1.8,0.1v22.3c-0.5,0.1-1.1,0.1-1.8,0.1
				s-1.3,0-1.8-0.1v-7.6l0-2.4l-1.8,0h-5.5l-1.9,0l0,2.4v7.6c-0.5,0.1-1,0.1-1.7,0.1c-0.7,0-1.3,0-1.7-0.1v-22.3
				c0.4-0.1,1-0.1,1.7-0.1c0.7,0,1.3,0,1.7,0.1v6.9l0,2.4l1.9,0h5.5L124.8,657.6z"/>
			<path fill="#1D3D8F" d="M147,654.7l-4.3,15.3c-0.4,1.4-0.8,2.5-1.2,3.5c-0.4,1-0.9,1.8-1.5,2.4c-0.6,0.6-1.2,1.1-2,1.3
				c-0.8,0.3-1.6,0.4-2.6,0.4c-0.2,0-0.4,0-0.8,0c-0.3,0-0.7-0.1-1-0.1c-0.3-0.1-0.7-0.1-0.9-0.2c-0.3-0.1-0.4-0.2-0.4-0.3
				c0-0.4,0.1-0.8,0.2-1.2c0.1-0.5,0.3-0.8,0.6-1c0.7,0.3,1.6,0.4,2.5,0.4c0.9,0,1.7-0.3,2.3-1c0.6-0.7,1.1-1.7,1.5-3.1l0.1-0.4
				c-0.7,0-1.2-0.2-1.6-0.4c-0.4-0.3-0.7-0.7-0.9-1.4l-4.3-14.3c0.8-0.3,1.5-0.5,2.1-0.5c0.8,0,1.4,0.5,1.7,1.5l2.2,7.5
				c0.1,0.4,0.3,0.9,0.5,1.7c0.2,0.8,0.4,1.8,0.8,3.1c0,0.2,0.1,0.2,0.3,0.2l3.6-13.8c0.2,0,0.4-0.1,0.6-0.1c0.2,0,0.5,0,0.8,0
				c0.3,0,0.6,0,0.9,0c0.3,0,0.6,0.1,0.9,0.2L147,654.7z"/>
			<path fill="#1D3D8F" d="M155.7,654.2c1.2,0,2.4,0.4,3.7,1.1v-8.5l0.2-0.2h1.3c0.7,0,1.1,0.2,1.4,0.5c0.3,0.3,0.4,0.9,0.4,1.7V666
				c0,1.5,0.3,2.6,0.9,3.1c-0.1,0.3-0.3,0.6-0.5,1c-0.2,0.3-0.5,0.6-0.8,0.8c-1.2-0.2-2.1-0.9-2.6-2c-1.3,1.5-2.9,2.2-4.7,2.2
				s-3.3-0.7-4.2-2.2c-1-1.5-1.4-3.6-1.4-6.2c0-1.3,0.2-2.5,0.5-3.5c0.3-1,0.8-1.9,1.4-2.6c0.6-0.7,1.2-1.3,2-1.6
				C154,654.3,154.8,654.2,155.7,654.2z M155.8,668.2c1.4,0,2.6-0.7,3.6-2.1V658c-1.2-0.8-2.3-1.2-3.2-1.2c-1,0-1.8,0.5-2.4,1.5
				c-0.6,1-0.9,2.4-0.9,4.3c0,1.9,0.3,3.3,0.8,4.2C154.3,667.7,155,668.2,155.8,668.2z"/>
			<path fill="#1D3D8F" d="M167.7,656c0.2-0.8,0.6-1.4,1.2-1.8c1.5,0.3,2.5,1.3,3,2.9c0.9-1.9,2.3-2.9,4.3-2.9
				c0.5,0,1.1,0.1,1.7,0.2c0,1.3-0.3,2.3-0.8,3.2c-0.2-0.1-0.6-0.1-1.3-0.2c-1.5,0-2.6,0.8-3.5,2.5v10.6c-0.4,0.1-1,0.1-1.7,0.1
				c-0.7,0-1.3,0-1.7-0.1v-11.2C169,657.9,168.5,656.7,167.7,656z"/>
			<path fill="#1D3D8F" d="M191.6,669.2c-1.2,1.2-2.8,1.8-4.7,1.8c-1.1,0-2.1-0.2-3-0.6c-0.9-0.4-1.6-1-2.2-1.7
				c-0.6-0.8-1.1-1.6-1.4-2.7c-0.3-1-0.5-2.2-0.5-3.5c0-1.3,0.2-2.4,0.5-3.5s0.8-1.9,1.4-2.7c0.6-0.8,1.3-1.3,2.2-1.7
				c0.9-0.4,1.9-0.6,3-0.6s2.1,0.2,3,0.6c0.9,0.4,1.6,1,2.2,1.7c0.6,0.8,1.1,1.6,1.4,2.7s0.5,2.2,0.5,3.5
				C193.9,665.4,193.1,667.6,191.6,669.2z M186.8,656.6c-2.4,0-3.5,2-3.5,5.9c0,3.9,1.2,5.9,3.5,5.9c2.4,0,3.6-2,3.6-5.9
				C190.4,658.5,189.2,656.6,186.8,656.6z"/>
			<path fill="#1D3D8F" d="M218.2,665.1l-2,0h-4.5l-1.9,0l-1.7,5.5c-0.4,0.1-0.9,0.1-1.5,0.1s-1.2-0.1-1.7-0.2l-0.1-0.2l7.4-22.1
				c0.5-0.1,1.1-0.1,2-0.1s1.5,0,2,0.1l7.3,22.1c-0.5,0.3-1,0.5-1.8,0.5c-0.7,0-1.2-0.1-1.5-0.4c-0.3-0.3-0.6-0.7-0.8-1.4
				L218.2,665.1z M210.7,662.3l1.7,0h3.3c0.9,0,1.4,0,1.6,0l-1.5-4.7c-0.8-2.4-1.3-4.4-1.7-5.9h-0.2c-0.3,1.2-0.7,2.8-1.3,4.7
				L210.7,662.3z"/>
			<path fill="#1D3D8F" d="M231.3,657.2v13.3c-0.4,0.1-1,0.1-1.7,0.1c-0.7,0-1.3,0-1.7-0.1v-12c0-0.6-0.1-1-0.3-1.3
				c-0.2-0.3-0.6-0.4-1.1-0.4h-0.4c-0.1-0.5-0.2-0.9-0.2-1.2c0-0.3,0.1-0.7,0.2-1.2c0.7-0.1,1.4-0.1,2.1-0.1h0.5
				c0.8,0,1.5,0.3,1.9,0.8C231.1,655.6,231.3,656.3,231.3,657.2z M227.2,651.4c-0.2-0.4-0.3-0.9-0.3-1.4c0-0.9,0.2-1.4,0.5-1.6
				c0.3-0.2,0.9-0.3,1.6-0.3c0.9,0,1.4,0.1,1.7,0.3c0.2,0.2,0.4,0.7,0.4,1.5c0,0.8-0.2,1.3-0.4,1.5c-0.2,0.2-0.8,0.3-1.7,0.4
				C228.2,651.8,227.6,651.7,227.2,651.4z"/>
			<path fill="#1D3D8F" d="M236.2,656c0.2-0.8,0.6-1.4,1.2-1.8c1.5,0.3,2.5,1.3,3,2.9c0.9-1.9,2.3-2.9,4.3-2.9
				c0.5,0,1.1,0.1,1.7,0.2c0,1.3-0.3,2.3-0.8,3.2c-0.2-0.1-0.6-0.1-1.3-0.2c-1.5,0-2.6,0.8-3.5,2.5v10.6c-0.4,0.1-1,0.1-1.7,0.1
				c-0.7,0-1.3,0-1.7-0.1v-11.2C237.4,657.9,237,656.7,236.2,656z"/>
			<path fill="#1D3D8F" d="M270.5,656c0-0.7-0.1-1.4-0.2-2c-0.2-0.6-0.4-1.2-0.8-1.7c-0.4-0.5-0.8-0.9-1.4-1.2
				c-0.6-0.3-1.3-0.4-2.2-0.4c-1.7,0-3,0.8-3.8,2.3c-0.9,1.5-1.3,3.7-1.3,6.5c0,2.8,0.5,4.9,1.4,6.4c0.9,1.5,2.3,2.2,4.1,2.2
				c1.8,0,3.7-0.8,5.7-2.5c0.9,0.6,1.5,1.3,1.7,2.3c-0.5,0.5-1,0.9-1.7,1.3c-0.6,0.4-1.3,0.7-2,1c-0.7,0.3-1.4,0.5-2.1,0.7
				s-1.4,0.2-2.1,0.2c-1.7,0-3.1-0.3-4.2-1c-1.1-0.6-2-1.5-2.7-2.5c-0.6-1.1-1.1-2.3-1.4-3.7c-0.3-1.4-0.5-2.8-0.5-4.3
				c0-2,0.2-3.7,0.7-5.1s1.1-2.7,1.9-3.6c0.8-1,1.7-1.7,2.8-2.2c1.1-0.5,2.2-0.7,3.4-0.7c1.2,0,2.4,0.2,3.3,0.5
				c1,0.4,1.8,0.8,2.5,1.4c0.7,0.6,1.2,1.3,1.6,2c0.4,0.8,0.6,1.6,0.6,2.4c0,1.3-0.7,2-2,2C271.5,656.1,271,656.1,270.5,656z"/>
			<path fill="#1D3D8F" d="M289,669.2c-1.2,1.2-2.8,1.8-4.7,1.8c-1.1,0-2.1-0.2-3-0.6c-0.9-0.4-1.6-1-2.2-1.7
				c-0.6-0.8-1.1-1.6-1.4-2.7c-0.3-1-0.5-2.2-0.5-3.5c0-1.3,0.2-2.4,0.5-3.5s0.8-1.9,1.4-2.7c0.6-0.8,1.3-1.3,2.2-1.7
				c0.9-0.4,1.9-0.6,3-0.6c1.1,0,2.1,0.2,3,0.6c0.9,0.4,1.6,1,2.2,1.7c0.6,0.8,1.1,1.6,1.4,2.7s0.5,2.2,0.5,3.5
				C291.3,665.4,290.5,667.6,289,669.2z M284.3,656.6c-2.4,0-3.5,2-3.5,5.9c0,3.9,1.2,5.9,3.5,5.9c2.4,0,3.6-2,3.6-5.9
				C287.8,658.5,286.6,656.6,284.3,656.6z"/>
			<path fill="#1D3D8F" d="M309,659.5v7.6c0,1.3,0.2,2.3,0.6,3c-0.6,0.5-1.2,0.7-2,0.7c-0.7,0-1.2-0.2-1.5-0.5
				c-0.3-0.4-0.4-0.9-0.4-1.6v-8.3c0-1.1-0.1-1.9-0.4-2.4c-0.3-0.5-0.8-0.7-1.5-0.7c-0.7,0-1.5,0.2-2.2,0.5c-0.8,0.4-1.4,0.9-2,1.5
				v11.3c-0.4,0.1-0.9,0.1-1.7,0.1c-0.3,0-0.7,0-0.9,0c-0.3,0-0.5-0.1-0.8-0.1v-16.1l0.2-0.2h1.3c1.2,0,1.8,0.7,1.9,2
				c1.6-1.5,3.3-2.2,5.2-2.2c1.5,0,2.5,0.5,3.3,1.5C308.6,656.5,309,657.8,309,659.5z"/>
			<path fill="#1D3D8F" d="M323.3,660.7v-0.4c0-2.5-1-3.7-2.9-3.7c-1,0-1.8,0.5-2.4,1.5c-0.6,1-0.8,2.5-0.8,4.5
				c0,3.7,1.2,5.6,3.7,5.6c1.2,0,2.5-0.5,3.9-1.6c0.3,0.2,0.6,0.5,0.9,0.8c0.3,0.4,0.5,0.8,0.6,1.1c-1.6,1.6-3.6,2.4-5.8,2.4
				c-1.2,0-2.2-0.2-3-0.6c-0.8-0.4-1.5-1-2.1-1.8c-0.6-0.8-1-1.7-1.2-2.7s-0.4-2.2-0.4-3.5c0-1.3,0.2-2.5,0.6-3.5
				c0.4-1,0.9-1.9,1.5-2.6c0.6-0.7,1.3-1.2,2.2-1.6c0.8-0.4,1.7-0.6,2.6-0.6c0.9,0,1.8,0.1,2.5,0.4c0.7,0.3,1.4,0.7,1.9,1.1
				c0.5,0.5,0.9,1,1.2,1.6c0.3,0.6,0.4,1.2,0.4,1.8c0,1.2-0.6,1.9-1.7,1.9C324.1,660.8,323.7,660.7,323.3,660.7z"/>
			<path fill="#1D3D8F" d="M342.7,663.6h-9.6c0.1,1.5,0.4,2.7,1,3.5c0.6,0.8,1.6,1.2,2.9,1.2c0.7,0,1.4-0.1,2.1-0.3
				c0.8-0.2,1.5-0.5,2.3-0.9c0.5,0.5,0.9,1.2,1.1,2.2c-1.7,1.2-3.8,1.8-6.1,1.8c-1.2,0-2.3-0.2-3.1-0.7c-0.8-0.4-1.5-1-2.1-1.8
				c-0.5-0.8-0.9-1.7-1.2-2.7c-0.2-1.1-0.4-2.2-0.4-3.4c0-1.2,0.2-2.3,0.5-3.3c0.3-1,0.7-1.9,1.3-2.7c0.6-0.7,1.3-1.3,2.1-1.8
				c0.8-0.4,1.8-0.6,2.8-0.6c1,0,2,0.2,2.8,0.5c0.8,0.4,1.5,0.8,2.1,1.5c0.6,0.6,1,1.4,1.3,2.2c0.3,0.9,0.4,1.8,0.4,2.8
				c0,0.4,0,0.9,0,1.3C342.9,662.7,342.8,663.1,342.7,663.6z M336.4,656.5c-2.1,0-3.2,1.5-3.3,4.6h6.6v-0.4c0-1.2-0.3-2.2-0.8-3
				C338.4,656.9,337.6,656.5,336.4,656.5z"/>
			<path fill="#1D3D8F" d="M355,670.9c-1.2,0-2.5-0.4-3.7-1.1v5.7c0,0.8-0.1,1.3-0.4,1.7c-0.3,0.3-0.7,0.5-1.4,0.5h-1.3l-0.2-0.2
				v-22.9l0.2-0.2h1c1.1,0,1.8,0.6,2,1.7c1.3-1.3,2.8-2,4.5-2c0.9,0,1.7,0.2,2.4,0.6c0.7,0.4,1.3,1,1.7,1.7c0.5,0.7,0.8,1.6,1.1,2.7
				c0.3,1,0.4,2.2,0.4,3.5c0,1.3-0.2,2.5-0.5,3.5s-0.8,1.9-1.4,2.6c-0.6,0.7-1.2,1.3-2,1.6C356.6,670.7,355.8,670.9,355,670.9z
				 M354.8,656.8c-1.4,0-2.6,0.7-3.6,2.1v8c0.6,0.4,1.1,0.7,1.6,0.9c0.5,0.2,1,0.3,1.5,0.3c1,0,1.8-0.5,2.5-1.5
				c0.6-1,0.9-2.4,0.9-4.3c0-1.9-0.3-3.3-0.8-4.2C356.4,657.3,355.7,656.8,354.8,656.8z"/>
			<path fill="#1D3D8F" d="M374,654.4c0.1,0.4,0.2,0.8,0.2,1.3c0,0.5-0.1,0.9-0.2,1.2l-4-0.1v9.7c0,1,0.4,1.4,1.3,1.4h2.3
				c0.2,0.5,0.3,1,0.3,1.5c0,0.5,0,0.8-0.1,1c-1.3,0.2-2.5,0.2-3.7,0.2c-2.3,0-3.4-1.1-3.4-3.4v-10.5l-2.4,0
				c-0.1-0.4-0.1-0.8-0.1-1.2c0-0.4,0-0.9,0.1-1.3l2.4,0.1v-2.9c0-0.8,0.1-1.3,0.4-1.7c0.3-0.3,0.7-0.5,1.4-0.5h1.3l0.2,0.2v4.8
				L374,654.4z"/>
			<path fill="#1D3D8F" d="M390.1,666l0,1.7c0.7-0.1,1.4-0.1,2.2-0.1h8.5c0,0.6,0,1-0.1,1.3c-0.2,1.1-0.9,1.6-2.2,1.6h-9.7
				c-0.6,0-1.1-0.2-1.5-0.6c-0.4-0.4-0.5-0.9-0.5-1.6v-20l0.2-0.2h13.1c0.1,0.4,0.1,0.8,0.1,1.4c0,0.6-0.1,1.1-0.3,1.6h-9.8l0,2.1
				v4.6l2,0h6.1c0.1,0.4,0.2,0.9,0.2,1.5c0,0.6-0.1,1.1-0.2,1.4h-6.1c-0.8,0-1.5,0-2,0V666z"/>
			<path fill="#1D3D8F" d="M418.5,659.5v7.6c0,1.3,0.2,2.3,0.6,3c-0.6,0.5-1.2,0.7-2,0.7c-0.7,0-1.2-0.2-1.5-0.5
				c-0.3-0.4-0.4-0.9-0.4-1.6v-8.3c0-1.1-0.1-1.9-0.4-2.4c-0.3-0.5-0.8-0.7-1.5-0.7c-0.7,0-1.5,0.2-2.2,0.5c-0.8,0.4-1.4,0.9-2,1.5
				v11.3c-0.4,0.1-0.9,0.1-1.7,0.1c-0.3,0-0.7,0-0.9,0c-0.3,0-0.5-0.1-0.8-0.1v-16.1l0.2-0.2h1.3c1.2,0,1.8,0.7,1.9,2
				c1.6-1.5,3.3-2.2,5.2-2.2c1.5,0,2.5,0.5,3.3,1.5C418.1,656.5,418.5,657.8,418.5,659.5z"/>
			<path fill="#1D3D8F" d="M436.2,663.6h-9.6c0.1,1.5,0.4,2.7,1,3.5c0.6,0.8,1.6,1.2,2.9,1.2c0.7,0,1.4-0.1,2.1-0.3
				c0.8-0.2,1.5-0.5,2.3-0.9c0.5,0.5,0.9,1.2,1.1,2.2c-1.7,1.2-3.8,1.8-6.1,1.8c-1.2,0-2.3-0.2-3.1-0.7s-1.5-1-2.1-1.8
				c-0.5-0.8-0.9-1.7-1.2-2.7c-0.2-1.1-0.4-2.2-0.4-3.4c0-1.2,0.2-2.3,0.5-3.3c0.3-1,0.7-1.9,1.3-2.7c0.6-0.7,1.3-1.3,2.1-1.8
				c0.8-0.4,1.8-0.6,2.8-0.6s2,0.2,2.8,0.5c0.8,0.4,1.5,0.8,2.1,1.5c0.6,0.6,1,1.4,1.3,2.2c0.3,0.9,0.4,1.8,0.4,2.8
				c0,0.4,0,0.9,0,1.3C436.4,662.7,436.3,663.1,436.2,663.6z M430,656.5c-2.1,0-3.2,1.5-3.3,4.6h6.6v-0.4c0-1.2-0.3-2.2-0.8-3
				C431.9,656.9,431.1,656.5,430,656.5z"/>
			<path fill="#1D3D8F" d="M440.5,656c0.2-0.8,0.6-1.4,1.2-1.8c1.5,0.3,2.5,1.3,3,2.9c0.9-1.9,2.3-2.9,4.3-2.9
				c0.5,0,1.1,0.1,1.7,0.2c0,1.3-0.3,2.3-0.8,3.2c-0.2-0.1-0.6-0.1-1.3-0.2c-1.5,0-2.6,0.8-3.5,2.5v10.6c-0.4,0.1-1,0.1-1.7,0.1
				c-0.7,0-1.3,0-1.7-0.1v-11.2C441.7,657.9,441.3,656.7,440.5,656z"/>
			<path fill="#1D3D8F" d="M463.6,655.7c0.5-0.8,1.2-1.3,2.3-1.5c0.3,0.2,0.5,0.4,0.8,0.8s0.4,0.7,0.5,0.9c-0.6,0.6-0.9,1.6-0.9,3.1
				v9.7c0,1.7-0.1,3.1-0.4,4.2c-0.3,1.2-0.7,2.1-1.3,2.8c-0.6,0.7-1.3,1.2-2.2,1.5c-0.9,0.3-1.9,0.5-3.1,0.5c-1.9,0-3.8-0.4-5.7-1.1
				c0-1,0.3-1.9,0.9-2.5c1.4,0.7,2.9,1,4.4,1c1.5,0,2.6-0.4,3.2-1.2c0.6-0.8,0.8-1.9,0.8-3.3v-1.5c-1.3,1.2-2.8,1.8-4.5,1.8
				c-1.7,0-3.1-0.8-4-2.3c-1-1.5-1.5-3.6-1.5-6.2c0-1.3,0.2-2.5,0.5-3.5c0.3-1,0.8-1.9,1.4-2.6c0.6-0.7,1.3-1.3,2-1.6
				c0.8-0.4,1.6-0.6,2.4-0.6C460.9,654,462.3,654.6,463.6,655.7z M462.9,666.1v-8c-1.1-1-2.2-1.5-3.2-1.5c-1,0-1.9,0.5-2.5,1.5
				c-0.6,1-0.9,2.4-0.9,4.4c0,1.9,0.3,3.3,0.8,4.2c0.5,0.9,1.3,1.3,2.1,1.3C460.6,668,461.8,667.4,462.9,666.1z"/>
			<path fill="#1D3D8F" d="M484.4,654.7l-4.3,15.3c-0.4,1.4-0.8,2.5-1.2,3.5c-0.4,1-0.9,1.8-1.5,2.4c-0.6,0.6-1.2,1.1-2,1.3
				c-0.8,0.3-1.6,0.4-2.6,0.4c-0.2,0-0.4,0-0.8,0c-0.3,0-0.7-0.1-1-0.1c-0.3-0.1-0.7-0.1-0.9-0.2c-0.3-0.1-0.4-0.2-0.4-0.3
				c0-0.4,0.1-0.8,0.2-1.2c0.1-0.5,0.3-0.8,0.6-1c0.7,0.3,1.6,0.4,2.5,0.4c0.9,0,1.7-0.3,2.3-1c0.6-0.7,1.1-1.7,1.5-3.1l0.1-0.4
				c-0.7,0-1.2-0.2-1.6-0.4c-0.4-0.3-0.7-0.7-0.9-1.4l-4.3-14.3c0.8-0.3,1.5-0.5,2.1-0.5c0.8,0,1.4,0.5,1.7,1.5l2.2,7.5
				c0.1,0.4,0.3,0.9,0.5,1.7c0.2,0.8,0.4,1.8,0.8,3.1c0,0.2,0.1,0.2,0.3,0.2l3.6-13.8c0.2,0,0.4-0.1,0.6-0.1c0.2,0,0.5,0,0.8,0
				c0.3,0,0.6,0,0.9,0c0.3,0,0.6,0.1,0.9,0.2L484.4,654.7z"/>
		</g>
	</g>
</g>
</svg>
