<?xml version="1.0" encoding="utf-8"?>
<svg version="1.1" xmlns="http://www.w3.org/2000/svg" xmlns:xlink="http://www.w3.org/1999/xlink" 
     viewBox="150 180 340 250" width="340" height="250">
<g>
  <linearGradient id="SVGID_1_" gradientUnits="userSpaceOnUse" x1="151.1585" y1="321.07" x2="446.1612" y2="321.07">
    <stop offset="8.774910e-04" style="stop-color:#1F3C8F"/>
    <stop offset="1" style="stop-color:#58B999"/>
  </linearGradient>
  <path fill="url(#SVGID_1_)" d="M443.6,337.9c-0.3-17.5-14.5-31.5-32.1-31.5c0,0-82.9,0-82.9,0c-7.8,0-15.2-3.3-20.3-9.1
    c-4.7-5.4-7.1-12.6-7.1-19.7c0,0.2,0,0.4,0,0.6c0.1-8-2.8-15.7-8.7-21.3c-5.6-5.3-13.2-8.2-20.8-8.7c-0.9-0.1-1.7-0.1-2.6-0.1
    l-80.2,0.2c-17.3,0-34.6,13.7-35.2,30.9c0-0.6-0.1,25.6,0,24.9c0.3,17.5,17.7,31.5,35.2,31.5h67.3c0,0,17.4,0,17.4,0
    c7.8,0,15.9,2.6,21.2,8.5c2.4,2.7,3.9,5.7,5.1,9.1c1.7,4.8,0.7,10.2,1.7,15.2c0.8,3.9,2.3,7.6,4.4,10.9
    c4.2,6.6,10.8,11.5,18.4,13.6c2.8,0.8,5.7,1.2,8.7,1.2h78.4c17.3,0,31.4-13.7,32-30.9C443.6,363.6,443.6,337.2,443.6,337.9z
     M416,364.8c0,0-87.4,0-87.4,0c-7.8,0-15.2-3.4-20.3-9.3c-4.7-5.5-7.1-12.6-7.1-19.8c0,0.2,0,0.4,0,0.6c0.1-7.9-2.8-15.6-8.5-21.1
    c-5.6-5.3-13.1-8.2-20.7-8.7c-0.9-0.1-1.9-0.1-2.8-0.1h-56.3l-0.1,0h-31.5c-10.7,0-24.1-14.5-24.1-14.5s13.4-14.4,24.1-14.4
    c0,0,92.3,0,92.3,0c7.7,0,15.7,2.4,21.1,8.2c2.3,2.4,4.2,5.5,5.1,8.7c0.6,2.1,1.1,4.1,1.2,6.4c0.2,4.7,0.3,9.1,1.9,13.6
    c1.3,3.7,3.3,7.1,5.8,10c5.1,6,12.3,9.9,20.1,11c1.4,0.2,2.9,0.3,4.3,0.3c0,0,2.4,0,2.4,0H416c10.7,0,24.1,14.5,24.1,14.5
    S426.7,364.8,416,364.8z"/>
  <text x="210" y="400" fill="#FFFFFF" font-family="sans-serif" font-size="80" font-weight="bold">hace</text>
</g>
</svg>
